<?xml version="1.0" encoding="UTF-8"?>
<svg xmlns="http://www.w3.org/2000/svg" viewBox="0 0 200.25 201.55">
  <defs>
    <style>
      .cls-1 {
        fill: #000;
      }

      .cls-1, .cls-2 {
        stroke-width: 0px;
      }

      .cls-2 {
        fill: #fff;
      }
    </style>
  </defs>
  <g id="Warstwa_2" data-name="Warstwa 2">
    <rect class="cls-2" width="201.55" height="201.55" rx="56.72" ry="56.72"/>
  </g>
  <g id="Warstwa_1" data-name="Warstwa 1">
    <g id="Warstwa_1-2" data-name="Warstwa 1">
      <g>
        <path class="cls-1" d="M108.42,14.69c-1.27,2.85-6.59,8.24-10.48,10.78-5.69,3.59-14.15,6.07-23.14,6.66l-7.94.52,5.54,4.27c3.07,2.32,6.37,5.09,7.34,6.14,2.1,2.25,3.74,2.4,10.11.75,12.66-3.22,24.34-11.76,30.18-22.09,5.17-9.29,5.32-8.91-3.37-8.91-7.19,0-7.41.07-8.24,1.87h0Z"/>
        <path class="cls-1" d="M128.04,21.2c-1.05,2.17-2.7,4.94-3.52,6.14l-1.57,2.17,3.97,3.67c4.42,4.04,13.85,8.91,20.67,10.63,8.54,2.17,26.96,3.44,31.53,2.25,1.57-.45,1.57-.6-1.35-6.96l-3.07-6.59-9.81-.45c-14.75-.6-22.76-3.44-30.48-10.78l-4.34-4.12-2.02,4.04h0Z"/>
        <path class="cls-1" d="M76.15,75.87c.31.99.55,2.08.75,3.2h14.08c-.31-2.25-.75-4.4-1.36-6.34-4.27-13.7-11.91-23.89-24.56-32.72l-4.49-3.15-2.62,5.77-2.55,5.77,5.99,5.62c7.11,6.74,12.66,14.83,14.75,21.87v-.02Z"/>
        <path class="cls-1" d="M156.2,55.57c-3.82,5.17-8.16,14.75-9.44,20.89-3,14.08,1.05,29.8,11.01,43.21,3.07,4.12,3.22,6.22.37,6.22-4.27.07-16.25,1.65-19.92,2.62-3.74,1.05-13.48,4.79-13.48,5.17,0,.15,2.25,2.47,5.09,5.24,4.79,4.87,5.09,5.09,7.26,4.27,5.84-2.02,12.58-3.07,20.74-3.07h8.84l5.24-7.86c2.92-4.34,5.47-8.39,5.69-8.99.3-.67-1.12-2.85-3.52-5.39-4.79-5.32-10.18-13.48-12.06-18.35-5.39-14.3-1.42-29.88,11.01-42.76l3.44-3.52h-6.66c-3.67,0-7.71-.22-8.99-.45-2.02-.45-2.55-.15-4.64,2.77h.02Z"/>
      </g>
    </g>
    <g id="Warstwa_3" data-name="Warstwa 3">
      <path class="cls-1" d="M27.38,79.06h31.53l24.94,51.13,24.94-51.13h31.53l-54.61,109.68h-3.71L27.38,79.06ZM130.21,84.01h-15.87l-26.17,53.6,7.83,15.21,34.21-68.82h0Z"/>
    </g>
  </g>
</svg>